<mxfile host="app.diagrams.net" modified="2021-03-18T08:49:05.770Z" agent="5.0 (Macintosh; Intel Mac OS X 10_12_5) AppleWebKit/537.36 (KHTML, like Gecko) Chrome/86.0.4240.80 Safari/537.36" etag="8EpW85N26zaZEN52EJHI" version="14.4.9" type="github">
  <diagram id="0gDThj9_mN8xBxblAtnX" name="Page-1">
    <mxGraphModel dx="946" dy="1758" grid="1" gridSize="10" guides="1" tooltips="1" connect="1" arrows="1" fold="1" page="1" pageScale="1" pageWidth="827" pageHeight="1169" math="0" shadow="0">
      <root>
        <mxCell id="0" />
        <mxCell id="1" parent="0" />
        <mxCell id="ZTigU1IiA_GM5v14efna-14" value="" style="endArrow=classic;html=1;" edge="1" parent="1">
          <mxGeometry width="50" height="50" relative="1" as="geometry">
            <mxPoint x="1010" y="549" as="sourcePoint" />
            <mxPoint x="930" y="549" as="targetPoint" />
          </mxGeometry>
        </mxCell>
        <mxCell id="ZTigU1IiA_GM5v14efna-15" value="" style="endArrow=classic;html=1;" edge="1" parent="1">
          <mxGeometry width="50" height="50" relative="1" as="geometry">
            <mxPoint x="1020" y="559" as="sourcePoint" />
            <mxPoint x="940" y="559" as="targetPoint" />
          </mxGeometry>
        </mxCell>
        <mxCell id="ZTigU1IiA_GM5v14efna-30" value="" style="edgeStyle=orthogonalEdgeStyle;rounded=0;orthogonalLoop=1;jettySize=auto;html=1;" edge="1" parent="1" source="ZTigU1IiA_GM5v14efna-22">
          <mxGeometry relative="1" as="geometry">
            <mxPoint x="230" y="70" as="targetPoint" />
          </mxGeometry>
        </mxCell>
        <mxCell id="ZTigU1IiA_GM5v14efna-22" value="起始" style="whiteSpace=wrap;html=1;rounded=1;" vertex="1" parent="1">
          <mxGeometry x="170" y="-70" width="120" height="60" as="geometry" />
        </mxCell>
        <mxCell id="ZTigU1IiA_GM5v14efna-41" value="" style="edgeStyle=orthogonalEdgeStyle;rounded=0;orthogonalLoop=1;jettySize=auto;html=1;" edge="1" parent="1" source="ZTigU1IiA_GM5v14efna-37">
          <mxGeometry relative="1" as="geometry">
            <mxPoint x="230" y="210" as="targetPoint" />
          </mxGeometry>
        </mxCell>
        <mxCell id="ZTigU1IiA_GM5v14efna-37" value="H5(输入手机号码登录)" style="rounded=0;whiteSpace=wrap;html=1;" vertex="1" parent="1">
          <mxGeometry x="170" y="70" width="120" height="60" as="geometry" />
        </mxCell>
        <mxCell id="ZTigU1IiA_GM5v14efna-45" value="" style="edgeStyle=orthogonalEdgeStyle;rounded=0;orthogonalLoop=1;jettySize=auto;html=1;" edge="1" parent="1" source="ZTigU1IiA_GM5v14efna-42" target="ZTigU1IiA_GM5v14efna-44">
          <mxGeometry relative="1" as="geometry" />
        </mxCell>
        <mxCell id="ZTigU1IiA_GM5v14efna-46" value="" style="edgeStyle=orthogonalEdgeStyle;rounded=0;orthogonalLoop=1;jettySize=auto;html=1;" edge="1" parent="1" source="ZTigU1IiA_GM5v14efna-42" target="ZTigU1IiA_GM5v14efna-44">
          <mxGeometry relative="1" as="geometry" />
        </mxCell>
        <mxCell id="ZTigU1IiA_GM5v14efna-49" value="" style="edgeStyle=orthogonalEdgeStyle;rounded=0;orthogonalLoop=1;jettySize=auto;html=1;" edge="1" parent="1" source="ZTigU1IiA_GM5v14efna-42" target="ZTigU1IiA_GM5v14efna-48">
          <mxGeometry relative="1" as="geometry" />
        </mxCell>
        <mxCell id="ZTigU1IiA_GM5v14efna-42" value="&lt;span&gt;请求Dcore验证是否是注册司机&lt;/span&gt;" style="rhombus;whiteSpace=wrap;html=1;rounded=0;" vertex="1" parent="1">
          <mxGeometry x="190" y="210" width="80" height="80" as="geometry" />
        </mxCell>
        <mxCell id="ZTigU1IiA_GM5v14efna-44" value="跳转到司机加盟页" style="whiteSpace=wrap;html=1;rounded=0;" vertex="1" parent="1">
          <mxGeometry x="10" y="220" width="120" height="60" as="geometry" />
        </mxCell>
        <mxCell id="ZTigU1IiA_GM5v14efna-47" value="否" style="text;html=1;align=center;verticalAlign=middle;resizable=0;points=[];autosize=1;" vertex="1" parent="1">
          <mxGeometry x="150" y="230" width="30" height="20" as="geometry" />
        </mxCell>
        <mxCell id="ZTigU1IiA_GM5v14efna-52" value="" style="edgeStyle=orthogonalEdgeStyle;rounded=0;orthogonalLoop=1;jettySize=auto;html=1;" edge="1" parent="1" source="ZTigU1IiA_GM5v14efna-48" target="ZTigU1IiA_GM5v14efna-51">
          <mxGeometry relative="1" as="geometry" />
        </mxCell>
        <mxCell id="ZTigU1IiA_GM5v14efna-54" value="" style="edgeStyle=orthogonalEdgeStyle;rounded=0;orthogonalLoop=1;jettySize=auto;html=1;" edge="1" parent="1" source="ZTigU1IiA_GM5v14efna-48" target="ZTigU1IiA_GM5v14efna-53">
          <mxGeometry relative="1" as="geometry" />
        </mxCell>
        <mxCell id="ZTigU1IiA_GM5v14efna-48" value="活动页&lt;br&gt;（我的邀请记录/面对面邀请）" style="whiteSpace=wrap;html=1;rounded=0;" vertex="1" parent="1">
          <mxGeometry x="170" y="380" width="120" height="60" as="geometry" />
        </mxCell>
        <mxCell id="ZTigU1IiA_GM5v14efna-50" value="是" style="text;html=1;align=center;verticalAlign=middle;resizable=0;points=[];autosize=1;" vertex="1" parent="1">
          <mxGeometry x="225" y="320" width="30" height="20" as="geometry" />
        </mxCell>
        <mxCell id="ZTigU1IiA_GM5v14efna-58" value="" style="edgeStyle=orthogonalEdgeStyle;rounded=0;orthogonalLoop=1;jettySize=auto;html=1;" edge="1" parent="1" source="ZTigU1IiA_GM5v14efna-51" target="ZTigU1IiA_GM5v14efna-57">
          <mxGeometry relative="1" as="geometry" />
        </mxCell>
        <mxCell id="ZTigU1IiA_GM5v14efna-51" value="点击面对面扫码" style="whiteSpace=wrap;html=1;rounded=0;" vertex="1" parent="1">
          <mxGeometry x="170" y="520" width="120" height="60" as="geometry" />
        </mxCell>
        <mxCell id="ZTigU1IiA_GM5v14efna-56" value="" style="edgeStyle=orthogonalEdgeStyle;rounded=0;orthogonalLoop=1;jettySize=auto;html=1;" edge="1" parent="1" source="ZTigU1IiA_GM5v14efna-53" target="ZTigU1IiA_GM5v14efna-55">
          <mxGeometry relative="1" as="geometry" />
        </mxCell>
        <mxCell id="ZTigU1IiA_GM5v14efna-53" value="点击（进行中的人数/累计收益/成邀请）" style="whiteSpace=wrap;html=1;rounded=0;" vertex="1" parent="1">
          <mxGeometry x="370" y="380" width="120" height="60" as="geometry" />
        </mxCell>
        <mxCell id="ZTigU1IiA_GM5v14efna-55" value="进行中的人数/累计收益/成邀请(详情)" style="whiteSpace=wrap;html=1;rounded=0;" vertex="1" parent="1">
          <mxGeometry x="570" y="380" width="120" height="60" as="geometry" />
        </mxCell>
        <mxCell id="ZTigU1IiA_GM5v14efna-60" value="" style="edgeStyle=orthogonalEdgeStyle;rounded=0;orthogonalLoop=1;jettySize=auto;html=1;" edge="1" parent="1" source="ZTigU1IiA_GM5v14efna-57" target="ZTigU1IiA_GM5v14efna-59">
          <mxGeometry relative="1" as="geometry" />
        </mxCell>
        <mxCell id="ZTigU1IiA_GM5v14efna-57" value="扫码输入手机号码" style="whiteSpace=wrap;html=1;rounded=0;" vertex="1" parent="1">
          <mxGeometry x="170" y="660" width="120" height="60" as="geometry" />
        </mxCell>
        <mxCell id="ZTigU1IiA_GM5v14efna-64" value="" style="edgeStyle=orthogonalEdgeStyle;rounded=0;orthogonalLoop=1;jettySize=auto;html=1;" edge="1" parent="1" source="ZTigU1IiA_GM5v14efna-59" target="ZTigU1IiA_GM5v14efna-63">
          <mxGeometry relative="1" as="geometry" />
        </mxCell>
        <mxCell id="ZTigU1IiA_GM5v14efna-59" value="是否是邀请过司机" style="rhombus;whiteSpace=wrap;html=1;rounded=0;" vertex="1" parent="1">
          <mxGeometry x="190" y="740" width="80" height="80" as="geometry" />
        </mxCell>
        <mxCell id="ZTigU1IiA_GM5v14efna-62" value="否" style="text;html=1;align=center;verticalAlign=middle;resizable=0;points=[];autosize=1;" vertex="1" parent="1">
          <mxGeometry x="25" y="500" width="30" height="20" as="geometry" />
        </mxCell>
        <mxCell id="ZTigU1IiA_GM5v14efna-63" value="提示已被邀请过" style="whiteSpace=wrap;html=1;rounded=0;" vertex="1" parent="1">
          <mxGeometry x="170" y="850" width="120" height="60" as="geometry" />
        </mxCell>
        <mxCell id="ZTigU1IiA_GM5v14efna-65" value="" style="endArrow=classic;html=1;exitX=0;exitY=0.5;exitDx=0;exitDy=0;entryX=0.5;entryY=1;entryDx=0;entryDy=0;" edge="1" parent="1" source="ZTigU1IiA_GM5v14efna-59" target="ZTigU1IiA_GM5v14efna-44">
          <mxGeometry width="50" height="50" relative="1" as="geometry">
            <mxPoint x="115" y="779.5" as="sourcePoint" />
            <mxPoint x="60" y="420" as="targetPoint" />
            <Array as="points">
              <mxPoint x="70" y="780" />
            </Array>
          </mxGeometry>
        </mxCell>
        <mxCell id="ZTigU1IiA_GM5v14efna-67" value="是" style="text;html=1;align=center;verticalAlign=middle;resizable=0;points=[];autosize=1;" vertex="1" parent="1">
          <mxGeometry x="225" y="820" width="30" height="20" as="geometry" />
        </mxCell>
        <mxCell id="ZTigU1IiA_GM5v14efna-68" value="end" style="rounded=1;whiteSpace=wrap;html=1;" vertex="1" parent="1">
          <mxGeometry x="170" y="950" width="120" height="60" as="geometry" />
        </mxCell>
        <mxCell id="ZTigU1IiA_GM5v14efna-69" value="" style="endArrow=classic;html=1;" edge="1" parent="1">
          <mxGeometry width="50" height="50" relative="1" as="geometry">
            <mxPoint x="230" y="910" as="sourcePoint" />
            <mxPoint x="229.5" y="950" as="targetPoint" />
          </mxGeometry>
        </mxCell>
      </root>
    </mxGraphModel>
  </diagram>
</mxfile>
